<?xml version="1.0" standalone="no"?>
<!DOCTYPE svg PUBLIC "-//W3C//DTD SVG 20010904//EN"
 "http://www.w3.org/TR/2001/REC-SVG-20010904/DTD/svg10.dtd">
<svg version="1.0" xmlns="http://www.w3.org/2000/svg"
 width="236.000000pt" height="197.000000pt" viewBox="0 0 236.000000 197.000000"
 preserveAspectRatio="xMidYMid meet">
<metadata>
Created by potrace 1.16, written by Peter Selinger 2001-2019
</metadata>
<g transform="translate(0.000000,197.000000) scale(0.100000,-0.100000)"
fill="#18181A" stroke="none">
<path d="M0 985 l0 -985 1180 0 1180 0 0 985 0 985 -1180 0 -1180 0 0 -985z
m1680 868 c186 -50 342 -215 380 -400 19 -87 8 -224 -23 -306 -50 -130 -95
-183 -508 -593 -433 -430 -442 -437 -594 -469 -131 -28 -247 -11 -368 52 -280
147 -367 484 -200 773 29 50 125 153 418 448 213 215 405 400 438 422 136 91
297 117 457 73z"/>
<path d="M1425 1766 c-129 -31 -250 -130 -306 -249 -86 -184 -54 -348 101
-521 38 -43 84 -106 100 -140 41 -82 63 -195 55 -271 l-6 -60 216 215 c119
118 239 243 266 276 168 210 166 460 -5 629 -115 114 -269 158 -421 121z" />
</g>
</svg>